<?xml version="1.0" encoding="UTF-8" standalone="no"?>
<!-- Created with Inkscape (http://www.inkscape.org/) -->

<svg
   width="59.619442mm"
   height="59.619942mm"
   viewBox="0 0 59.619442 59.619942"
   version="1.1"
   id="svg4329"
   inkscape:version="1.2 (1:1.2.1+202207142221+cd75a1ee6d)"
   sodipodi:docname="logo.svg"
   xmlns:inkscape="http://www.inkscape.org/namespaces/inkscape"
   xmlns:sodipodi="http://sodipodi.sourceforge.net/DTD/sodipodi-0.dtd"
   xmlns="http://www.w3.org/2000/svg"
   xmlns:svg="http://www.w3.org/2000/svg">
  <sodipodi:namedview
     id="namedview4331"
     pagecolor="#ffffff"
     bordercolor="#666666"
     borderopacity="1.0"
     inkscape:showpageshadow="2"
     inkscape:pageopacity="0.0"
     inkscape:pagecheckerboard="0"
     inkscape:deskcolor="#d1d1d1"
     inkscape:document-units="mm"
     showgrid="false"
     inkscape:zoom="0.47482464"
     inkscape:cx="-171.64232"
     inkscape:cy="224.29333"
     inkscape:window-width="1366"
     inkscape:window-height="699"
     inkscape:window-x="0"
     inkscape:window-y="0"
     inkscape:window-maximized="1"
     inkscape:current-layer="layer1" />
  <defs
     id="defs4326" />
  <g
     inkscape:label="Camada 1"
     inkscape:groupmode="layer"
     id="layer1"
     transform="translate(-103.36665,-89.435802)">
    <g
       id="g4499">
      <g
         id="g3757"
         transform="matrix(0.35277777,0,0,-0.35277777,120.19732,108.26264)">
        <path
           d="m 0,0 c -2.924,-6.448 -4.553,-13.605 -4.553,-21.134 0,-28.31 23.033,-51.344 51.344,-51.344 7.319,0 14.535,1.56 21.143,4.543 z m -39.709,-107.634 h 153 V 39.709 L 64.479,-9.103 c -1.561,-1.562 -4.096,-1.562 -5.657,0 -1.562,1.562 -1.562,4.095 0,5.657 L 80.16,17.893 C 70.868,25.863 59.163,30.21 46.791,30.21 28.976,30.21 13.252,21.091 4.04,7.273 l 73.42,-73.419 c 0.877,-0.876 1.298,-2.111 1.139,-3.34 -0.16,-1.231 -0.88,-2.318 -1.952,-2.943 -9.025,-5.265 -19.349,-8.049 -29.856,-8.049 -32.723,0 -59.344,26.622 -59.344,59.344 0,9.765 2.371,18.988 6.568,27.12 l -33.724,33.723 z m 157,-8 h -161 c -2.209,0 -4,1.791 -4,4 v 161 c 0,1.618 0.975,3.076 2.47,3.696 1.491,0.62 3.215,0.279 4.358,-0.868 L -1.711,13.025 C 9.043,28.251 26.775,38.21 46.791,38.21 c 14.511,0 28.227,-5.173 39.041,-14.647 l 28.631,28.631 c 1.143,1.147 2.866,1.488 4.358,0.868 1.495,-0.62 2.47,-2.078 2.47,-3.696 v -161 c 0,-2.209 -1.791,-4 -4,-4"
           style="fill:#00a396;fill-opacity:1;fill-rule:nonzero;stroke:none"
           id="path3759" />
      </g>
      <g
         id="g3761"
         transform="matrix(0.35277777,0,0,-0.35277777,118.74006,133.71743)">
        <path
           d="m 0,0 c -1.077,0 -2.15,0.432 -2.938,1.285 -4.045,4.377 -7.551,9.236 -10.421,14.444 -2.921,5.298 -5.174,10.946 -6.697,16.783 -1.57,6.013 -2.366,12.241 -2.366,18.509 0,2.292 0.108,4.607 0.32,6.88 0.209,2.237 0.526,4.494 0.943,6.708 0.409,2.177 0.925,4.365 1.534,6.501 0.602,2.11 1.308,4.218 2.1,6.269 0.796,2.06 3.109,3.084 5.172,2.29 2.061,-0.796 3.086,-3.111 2.29,-5.173 -0.705,-1.825 -1.333,-3.702 -1.869,-5.579 -0.542,-1.901 -1.001,-3.849 -1.366,-5.786 -0.37,-1.972 -0.652,-3.982 -0.839,-5.974 -0.189,-2.026 -0.285,-4.091 -0.285,-6.136 0,-5.586 0.709,-11.134 2.107,-16.489 1.356,-5.196 3.362,-10.223 5.961,-14.942 C -3.795,14.948 -0.67,10.617 2.937,6.715 4.436,5.093 4.336,2.562 2.714,1.062 1.944,0.352 0.971,0 0,0"
           style="fill:#00a396;fill-opacity:1;fill-rule:nonzero;stroke:none"
           id="path3763" />
      </g>
      <g
         id="g3765"
         transform="matrix(0.35277777,0,0,-0.35277777,146.54576,127.04185)">
        <path
           d="m 0,0 c -1.023,0 -2.048,0.391 -2.828,1.172 l -60.038,60.037 2.809,2.829 c 8.586,8.644 20.007,13.404 32.16,13.404 6.775,0 13.279,-1.448 19.331,-4.303 1.998,-0.943 2.853,-3.326 1.91,-5.325 -0.943,-1.997 -3.325,-2.852 -5.324,-1.91 -4.977,2.348 -10.332,3.538 -15.917,3.538 -8.668,0 -16.886,-2.943 -23.528,-8.361 L 2.828,6.828 C 4.391,5.267 4.391,2.733 2.828,1.172 2.048,0.391 1.023,0 0,0"
           style="fill:#00a396;fill-opacity:1;fill-rule:nonzero;stroke:none"
           id="path3767" />
      </g>
      <g
         id="g3769"
         transform="matrix(0.35277777,0,0,-0.35277777,158.0472,144.11679)">
        <path
           d="m 0,0 h -141 v 33.201 c 0,2.209 1.791,4 4,4 2.209,0 4,-1.791 4,-4 V 8 H -8 v 99.544 L -25.913,89.632 c -1.561,-1.563 -4.096,-1.563 -5.656,0 -1.563,1.561 -1.563,4.095 0,5.656 L 0,126.858 Z"
           style="fill:#00a396;fill-opacity:1;fill-rule:nonzero;stroke:none"
           id="path3771" />
      </g>
    </g>
  </g>
</svg>
